<?xml version="1.0" encoding="UTF-8"?>
<svg version="1.1" xmlns="http://www.w3.org/2000/svg" width="512" height="512">
<path d="M0 0 C11.07542707 7.60313101 18.90189879 17.38498764 22.453125 30.546875 C23.64526177 36.98441358 23.23266199 43.71806538 23.078125 50.234375 C23.62525146 50.4295874 24.17237793 50.6247998 24.73608398 50.82592773 C68.50615259 66.58900246 103.42033093 95.23291184 123.828125 137.609375 C133.93051352 159.30772 139.20987726 182.21095905 139.23583984 206.15673828 C139.24092056 207.19873383 139.24600128 208.24072937 139.25123596 209.31430054 C139.2618704 211.5589631 139.27051723 213.8036358 139.27735519 216.04831314 C139.28923078 219.60508864 139.30870201 223.16174739 139.33047485 226.71847534 C139.39182445 236.82480994 139.44619113 246.93112836 139.47949219 257.03759766 C139.5004549 263.23487588 139.5357595 269.43193352 139.58024979 275.62908554 C139.59438355 277.98370646 139.60312627 280.33836631 139.60630417 282.6930275 C139.61122203 285.98585347 139.6343998 289.27809413 139.66162109 292.57080078 C139.65861496 293.53620789 139.65560883 294.50161499 139.6525116 295.49627686 C139.76030973 304.29344581 141.7281171 310.44711649 147.96875 316.94921875 C148.44789856 317.45339828 148.92704712 317.95757782 149.42071533 318.47703552 C155.60837719 324.93526267 162.03432237 331.17595661 168.47314453 337.38256836 C182.25672287 350.69629861 191.65610138 365.19945904 192.453125 384.859375 C192.11176888 401.45781634 185.66505815 416.78594397 174.00390625 428.53515625 C165.25134996 436.6099445 153.06348213 443.37014322 140.83868408 443.35462952 C139.58093422 443.35669151 139.58093422 443.35669151 138.29777527 443.35879517 C137.38643326 443.35519989 136.47509125 443.35160461 135.53613281 443.34790039 C134.08685143 443.34811943 134.08685143 443.34811943 132.60829163 443.3483429 C129.41592155 443.34764644 126.22360988 443.3398665 123.03125 443.33203125 C120.81736279 443.33016612 118.60347517 443.32874267 116.3895874 443.32774353 C110.56332255 443.32392582 104.73708264 443.31410187 98.91082764 443.30303955 C92.96529477 443.29280941 87.01975788 443.28824247 81.07421875 443.28320312 C69.40884321 443.27247896 57.74348618 443.25541146 46.078125 443.234375 C45.99010117 444.3557914 45.99010117 444.3557914 45.90029907 445.49986267 C45.81799042 446.48467117 45.73568176 447.46947968 45.65087891 448.48413086 C45.57157135 449.45861679 45.49226379 450.43310272 45.41055298 451.43711853 C44.19454792 461.66934398 38.46988287 471.3797612 32.078125 479.234375 C31.42199219 480.06453125 30.76585937 480.8946875 30.08984375 481.75 C21.81259048 491.61612272 11.14397035 498.77525824 -0.921875 503.234375 C-1.74945313 503.55277344 -2.57703125 503.87117188 -3.4296875 504.19921875 C-21.21075422 509.8238419 -42.34676208 507.29224837 -58.734375 498.984375 C-76.15251692 488.94282684 -89.52697211 473.85806557 -94.921875 454.234375 C-95.13931156 452.32996155 -95.32434687 450.42167079 -95.4831543 448.51147461 C-95.5671196 447.52271835 -95.6510849 446.5339621 -95.7375946 445.51524353 C-95.79840714 444.76255692 -95.85921967 444.0098703 -95.921875 443.234375 C-97.73899239 443.24769867 -97.73899239 443.24769867 -99.59281921 443.2612915 C-111.05259389 443.34265195 -122.51230936 443.40247176 -133.97230816 443.44162369 C-139.86292825 443.46242929 -145.75331372 443.49061794 -151.64379883 443.53613281 C-157.33670648 443.57984186 -163.02938955 443.60356486 -168.72245216 443.61388397 C-170.88599999 443.62123055 -173.04953662 443.63557578 -175.2129879 443.65729523 C-194.19086989 443.84010753 -210.12702603 441.682907 -224.671875 428.109375 C-234.07841011 418.05411333 -240.93014399 405.1186091 -241.921875 391.234375 C-241.98503906 390.40035156 -242.04820312 389.56632812 -242.11328125 388.70703125 C-242.69425287 374.74497144 -238.7702313 360.27975124 -229.63256836 349.54492188 C-222.12000774 341.39902475 -214.32039976 333.58373703 -206.37597656 325.85986328 C-194.83897691 315.33241054 -194.83897691 315.33241054 -189.79158974 301.11696053 C-189.78903364 300.35279257 -189.78647755 299.58862461 -189.78384399 298.80130005 C-189.77839066 297.91886627 -189.77293732 297.0364325 -189.76731873 296.1272583 C-189.7662764 295.16632263 -189.76523407 294.20538696 -189.76416016 293.21533203 C-189.75907944 292.19670074 -189.75399872 291.17806946 -189.74876404 290.12857056 C-189.73805968 287.91329941 -189.72943976 285.69801745 -189.72264481 283.48273087 C-189.71081678 279.95619425 -189.69134619 276.42977795 -189.66952515 272.90328979 C-189.60809482 262.87453338 -189.55420989 252.84578539 -189.52050781 242.81689453 C-189.49932736 236.67834295 -189.4638274 230.54000492 -189.41975021 224.401577 C-189.40575604 222.08085556 -189.39690609 219.76009627 -189.39369583 217.43933487 C-189.36547303 198.96405256 -188.68915128 180.14675486 -183.171875 162.359375 C-182.91510986 161.50118164 -182.65834473 160.64298828 -182.39379883 159.75878906 C-179.87372021 151.60661894 -176.67321587 143.88908677 -172.921875 136.234375 C-172.59348633 135.54923828 -172.26509766 134.86410156 -171.92675781 134.15820312 C-164.06707073 117.90141446 -153.47180913 104.15180354 -140.921875 91.234375 C-140.39271484 90.68257568 -139.86355469 90.13077637 -139.31835938 89.56225586 C-121.24909027 71.02594209 -97.44086666 58.03098419 -72.921875 50.234375 C-72.95667969 49.29078125 -72.99148437 48.3471875 -73.02734375 47.375 C-73.34964189 32.08885977 -70.39130117 18.95695516 -59.609375 7.359375 C-55.48133092 3.58069768 -50.88287009 0.78847781 -45.921875 -1.765625 C-45.13554687 -2.18199219 -44.34921875 -2.59835938 -43.5390625 -3.02734375 C-30.21902082 -8.97751911 -12.30841101 -7.43770291 0 0 Z M-34.921875 34.234375 C-37.01840531 37.95095146 -36.921875 39.77278725 -36.921875 44.234375 C-29.001875 44.234375 -21.081875 44.234375 -12.921875 44.234375 C-13.72198576 36.07914778 -13.72198576 36.07914778 -18.921875 31.234375 C-19.251875 30.904375 -19.581875 30.574375 -19.921875 30.234375 C-25.99979601 29.45384199 -30.22310117 29.99401813 -34.921875 34.234375 Z M-106.921875 109.234375 C-107.6962793 109.87318604 -107.6962793 109.87318604 -108.48632812 110.52490234 C-126.73497813 125.80786955 -140.05046072 146.2473533 -147.421875 168.859375 C-147.64093506 169.52501465 -147.85999512 170.1906543 -148.08569336 170.87646484 C-152.76522198 186.67473111 -153.34853664 202.80931832 -153.30200005 219.15631866 C-153.29273218 222.71586124 -153.30328744 226.27489446 -153.31861877 229.83441162 C-153.35830389 239.93940657 -153.35992089 250.04435397 -153.35766602 260.14941406 C-153.35761464 266.37007085 -153.37690527 272.59044769 -153.40699959 278.81102753 C-153.4177109 282.2912238 -153.40576861 285.77086029 -153.39317322 289.2510376 C-153.43459715 314.65384065 -160.0697793 330.38622493 -178.0793457 348.41870117 C-181.85730072 352.16717611 -185.65193295 355.89897986 -189.46777344 359.60888672 C-201.36068354 370.68686489 -201.36068354 370.68686489 -206.0546875 385.71484375 C-205.6824397 392.77660339 -203.04391343 398.33998273 -197.921875 403.234375 C-191.68604701 407.25416495 -185.62473209 408.35758599 -178.24240398 408.36300945 C-177.12828819 408.3662339 -176.0141724 408.36945835 -174.86629552 408.3727805 C-173.04573737 408.3704576 -173.04573737 408.3704576 -171.18840027 408.36808777 C-169.89105416 408.37035333 -168.59370805 408.37261888 -167.25704843 408.37495309 C-163.66227318 408.38106333 -160.06752122 408.38093841 -156.47274196 408.37975872 C-152.59328979 408.37955451 -148.71384506 408.38507533 -144.83439636 408.38981628 C-137.23616272 408.39811913 -129.63793684 408.40087096 -122.03969904 408.40142866 C-115.86285826 408.40190399 -109.68602004 408.4039596 -103.50918007 408.40712929 C-85.9928846 408.41593484 -68.47659525 408.42054882 -50.96029755 408.41979881 C-50.01618988 408.41975886 -49.07208222 408.4197189 -48.09936523 408.41967773 C-47.15410354 408.41963685 -46.20884185 408.41959597 -45.23493586 408.41955385 C-29.91571913 408.4191474 -14.59652698 408.42871692 0.72268263 408.4428161 C16.45608045 408.45718212 32.18946627 408.46408616 47.92287081 408.46322232 C56.75447197 408.46289043 65.58604735 408.46563404 74.41764259 408.47640038 C81.93700164 408.48550833 89.45632322 408.48767819 96.9756854 408.48089095 C100.8106979 408.47762725 104.64563856 408.47756365 108.48064423 408.4862442 C112.6417169 408.49556579 116.80262341 408.48932926 120.96369934 408.48161316 C122.17071261 408.48675672 123.37772587 408.49190029 124.6213153 408.49719971 C134.20568133 408.45791367 142.81319898 408.0830813 150.078125 401.234375 C154.48192694 395.759378 156.37128787 390.37356803 156.078125 383.359375 C154.80271007 374.2786018 148.11782605 367.8453451 141.73828125 361.7421875 C140.33127997 360.36338353 138.92438212 358.98447401 137.51757812 357.60546875 C135.3310489 355.48090792 133.14117298 353.35990437 130.94848633 351.24169922 C116.66293629 337.40392679 104.37882955 323.04344138 103.81983948 302.10391235 C103.80562242 300.20815793 103.80187647 298.31230502 103.80688477 296.41650391 C103.79904465 294.85097275 103.79904465 294.85097275 103.79104614 293.2538147 C103.78085165 290.99988929 103.77503373 288.74594064 103.77316475 286.49199295 C103.76947577 282.90701802 103.75267626 279.32231355 103.73240662 275.73739624 C103.67726199 265.54845248 103.64646954 255.35946849 103.62182617 245.17041016 C103.60580986 238.92238238 103.57544032 232.6745449 103.53706169 226.42661667 C103.52552854 224.06433533 103.51948238 221.70201973 103.51938057 219.33971024 C103.51835152 201.80625011 102.89635229 184.44931255 97.015625 167.734375 C96.71889893 166.87328125 96.42217285 166.0121875 96.11645508 165.125 C90.81153768 150.36349071 83.26658776 137.13911785 73.078125 125.234375 C72.65450684 124.7285791 72.23088867 124.2227832 71.79443359 123.70166016 C50.32846636 98.21536509 18.38579337 82.6243671 -14.67211914 79.64428711 C-48.11731882 77.12715442 -81.14879616 87.90611858 -106.921875 109.234375 Z M-59.921875 443.234375 C-56.07492916 454.77521251 -51.59509778 461.3921899 -40.921875 467.234375 C-40.33148438 467.5746875 -39.74109375 467.915 -39.1328125 468.265625 C-31.55694263 471.87000362 -21.42953459 471.42623076 -13.46484375 469.3203125 C-3.63071996 465.48562272 3.2062549 459.66136822 8.078125 450.234375 C8.738125 447.924375 9.398125 445.614375 10.078125 443.234375 C-13.021875 443.234375 -36.121875 443.234375 -59.921875 443.234375 Z " fill="#000000" transform="translate(280.921875,5.765625)"/>
</svg>
